# xmcd CD database file
#
# Track frame offsets:
#	182
#	14720
#	26757
#	43195
#	64257
#	76645
#	95082
#	103132
#	116982
#	142557
#	157045
#	179970
#	194120
#	214782
#
# Disc length: 2957 seconds
#
# Revision: 1
# Processed by: cddbd v1.4PL0 Copyright (c) Steve Scherf et al.
# Submitted via: CDex 1.40Release
#
DISCID=d50b8b0e
DTITLE=Muddy Blues - Help!
DYEAR=1993
DGENRE=Blues
TTITLE0=Six Pack
TTITLE1=Help
TTITLE2=Wind Song
TTITLE3=Rockbottom Motel
TTITLE4=Foot Lose
TTITLE5=Whistle
TTITLE6=Blue Monday
TTITLE7=Cardiac Party
TTITLE8=Cat on the Run
TTITLE9=Band on the Road
TTITLE10=Turn the Music on
TTITLE11=Roma
TTITLE12=Check it out
TTITLE13=Goin' Home
EXTD=YEAR: 1993 ID3G: 0
EXTT0=
EXTT1=
EXTT2=
EXTT3=
EXTT4=
EXTT5=
EXTT6=
EXTT7=
EXTT8=
EXTT9=
EXTT10=
EXTT11=
EXTT12=
EXTT13=
PLAYORDER=
